<svg xmlns="http://www.w3.org/2000/svg" width="750" height="150" viewBox="0 0 750 150">
  <g fill="none" fill-rule="evenodd" class="mymarks">
    <rect width="750" height="150" class="remove"/>
    <rect width="726" height="136" x="12" y="7" stroke="#696969" stroke-width="4" class="frame" rx="65"/>
    <g fill="#696969" fill-opacity=".2" stroke="#696969" stroke-width="4" class="very-important" transform="translate(64 25)">
      <path d="M3.50211166,97.8980465 L50,74.1997743 L96.4978883,97.8980465 C97.4525186,96.8188636 98,95.4190664 98,93.9260694 L98,8 C98,4.6862915 95.3137085,2 92,2 L8,2 C4.6862915,2 2,4.6862915 2,8 L2,93.9260694 C2,95.4190664 2.54748139,96.8188636 3.50211166,97.8980465 Z" class="icon"/>
    </g>
    <g fill="#696969" fill-opacity=".2" fill-rule="nonzero" stroke="#696969" stroke-width="4" class="discussion-group" transform="translate(214 25)">
      <path d="M21.4285714,42.8571429 C29.3080357,42.8571429 35.7142857,36.4508929 35.7142857,28.5714286 C35.7142857,20.6919643 29.3080357,14.2857143 21.4285714,14.2857143 C13.5491071,14.2857143 7.14285714,20.6919643 7.14285714,28.5714286 C7.14285714,36.4508929 13.5491071,42.8571429 21.4285714,42.8571429 Z M121.428571,42.8571429 C129.308036,42.8571429 135.714286,36.4508929 135.714286,28.5714286 C135.714286,20.6919643 129.308036,14.2857143 121.428571,14.2857143 C113.549107,14.2857143 107.142857,20.6919643 107.142857,28.5714286 C107.142857,36.4508929 113.549107,42.8571429 121.428571,42.8571429 Z M128.571429,50 L114.285714,50 C110.357143,50 106.808036,51.5848214 104.21875,54.1517857 C113.214286,59.0848214 119.598214,67.9910714 120.982143,78.5714286 L135.714286,78.5714286 C139.665179,78.5714286 142.857143,75.3794643 142.857143,71.4285714 L142.857143,64.2857143 C142.857143,56.40625 136.450893,50 128.571429,50 Z M71.4285714,50 C85.2455357,50 96.4285714,38.8169643 96.4285714,25 C96.4285714,11.1830357 85.2455357,0 71.4285714,0 C57.6116071,0 46.4285714,11.1830357 46.4285714,25 C46.4285714,38.8169643 57.6116071,50 71.4285714,50 Z M88.5714286,57.1428571 L86.71875,57.1428571 C82.0758929,59.375 76.9196429,60.7142857 71.4285714,60.7142857 C65.9375,60.7142857 60.8035714,59.375 56.1383929,57.1428571 L54.2857143,57.1428571 C40.0892857,57.1428571 28.5714286,68.6607143 28.5714286,82.8571429 L28.5714286,89.2857143 C28.5714286,95.2008929 33.3705357,100 39.2857143,100 L103.571429,100 C109.486607,100 114.285714,95.2008929 114.285714,89.2857143 L114.285714,82.8571429 C114.285714,68.6607143 102.767857,57.1428571 88.5714286,57.1428571 Z M38.6383929,54.1517857 C36.0491071,51.5848214 32.5,50 28.5714286,50 L14.2857143,50 C6.40625,50 0,56.40625 0,64.2857143 L0,71.4285714 C0,75.3794643 3.19196429,78.5714286 7.14285714,78.5714286 L21.8526786,78.5714286 C23.2589286,67.9910714 29.6428571,59.0848214 38.6383929,54.1517857 Z" class="icon"/>
    </g>
    <g fill="#696969" fill-opacity=".2" fill-rule="nonzero" stroke="#696969" stroke-width="4" class="notes" transform="translate(407 25)">
      <path d="M69.6428571,64.2857143 L100,64.2857143 L100,5.35714286 C100,2.38839286 97.6116071,0 94.6428571,0 L5.35714286,0 C2.38839286,0 0,2.38839286 0,5.35714286 L0,94.6428571 C0,97.6116071 2.38839286,100 5.35714286,100 L64.2857143,100 L64.2857143,69.6428571 C64.2857143,66.6964286 66.6964286,64.2857143 69.6428571,64.2857143 Z M98.4375,76.5625 L76.5625,98.4375 C75.5580357,99.4419643 74.1964286,100 72.7678571,100 L71.4285714,100 L71.4285714,71.4285714 L100,71.4285714 L100,72.7901786 C100,74.1964286 99.4419643,75.5580357 98.4375,76.5625 Z" class="icon"/>
    </g>
    <g fill="#696969" fill-opacity=".2" fill-rule="nonzero" stroke="#696969" stroke-width="4" class="private-messages" transform="translate(557 25)">
      <path d="M92.8571429,35.7142857 C92.8571429,15.9821429 72.0758929,0 46.4285714,0 C20.78125,0 2.84217094e-14,15.9821429 2.84217094e-14,35.7142857 C2.84217094e-14,43.3705357 3.14732143,50.4241071 8.48214286,56.25 C5.49107143,62.9910714 0.558035714,68.3482143 0.491071429,68.4151786 C2.84217094e-14,68.9285714 -0.133928571,69.6875 0.15625,70.3571429 C0.446428571,71.0267857 1.07142857,71.4285714 1.78571429,71.4285714 C9.95535714,71.4285714 16.71875,68.6830357 21.5848214,65.8482143 C28.7723214,69.3526786 37.2767857,71.4285714 46.4285714,71.4285714 C72.0758929,71.4285714 92.8571429,55.4464286 92.8571429,35.7142857 Z M120.089286,84.8214286 C125.424107,79.0178571 128.571429,71.9419643 128.571429,64.2857143 C128.571429,49.3526786 116.629464,36.5625 99.7098214,31.2276786 C99.9107143,32.7008929 100,34.1964286 100,35.7142857 C100,59.3526786 75.9598214,78.5714286 46.4285714,78.5714286 C44.0178571,78.5714286 41.6741071,78.3928571 39.3526786,78.1473214 C46.3839286,90.9821429 62.9017857,100 82.1428571,100 C91.2946429,100 99.7991071,97.9464286 106.986607,94.4196429 C111.852679,97.2544643 118.616071,100 126.785714,100 C127.5,100 128.147321,99.5758929 128.415179,98.9285714 C128.705357,98.28125 128.571429,97.5223214 128.080357,96.9866071 C128.013393,96.9196429 123.080357,91.5848214 120.089286,84.8214286 Z" class="icon"/>
    </g>
  </g>
</svg>
