<svg xmlns="http://www.w3.org/2000/svg" width="443" height="150" viewBox="0 0 443 150">
  <g fill="none" fill-rule="evenodd" class="othermarks">
    <rect width="443" height="150" class="remove"/>
    <g fill="#696969" fill-opacity=".2" stroke="#696969" stroke-width="2" class="others" transform="translate(50 100)">
      <circle cx="185" cy="10" r="9" class="discussion"/>
      <circle cx="10" cy="10" r="9" class="important"/>
    </g>
    <g fill="#F80" fill-opacity=".2" stroke="#F80" stroke-width="2" class="following" transform="translate(50 75)">
      <circle cx="185" cy="10" r="9" class="discussion"/>
      <circle cx="10" cy="10" r="9" class="important"/>
    </g>
    <g fill="#60F" fill-opacity=".2" stroke="#60F" stroke-width="2" class="school-" transform="translate(50 50)">
      <circle cx="185" cy="10" r="9" class="discussion"/>
      <circle cx="10" cy="10" r="9" class="important"/>
    </g>
    <g fill="#02F" fill-opacity=".2" stroke="#02F" stroke-width="2" class="friends" transform="translate(50 25)">
      <circle cx="185" cy="10" r="9" class="discussion"/>
      <circle cx="10" cy="10" r="9" class="important"/>
    </g>
    <g fill="#696969" fill-opacity=".2" fill-rule="nonzero" stroke="#696969" stroke-width="4" class="discussion" transform="translate(250 25)">
      <path d="M21.4285714,42.8571429 C29.3080357,42.8571429 35.7142857,36.4508929 35.7142857,28.5714286 C35.7142857,20.6919643 29.3080357,14.2857143 21.4285714,14.2857143 C13.5491071,14.2857143 7.14285714,20.6919643 7.14285714,28.5714286 C7.14285714,36.4508929 13.5491071,42.8571429 21.4285714,42.8571429 Z M121.428571,42.8571429 C129.308036,42.8571429 135.714286,36.4508929 135.714286,28.5714286 C135.714286,20.6919643 129.308036,14.2857143 121.428571,14.2857143 C113.549107,14.2857143 107.142857,20.6919643 107.142857,28.5714286 C107.142857,36.4508929 113.549107,42.8571429 121.428571,42.8571429 Z M128.571429,50 L114.285714,50 C110.357143,50 106.808036,51.5848214 104.21875,54.1517857 C113.214286,59.0848214 119.598214,67.9910714 120.982143,78.5714286 L135.714286,78.5714286 C139.665179,78.5714286 142.857143,75.3794643 142.857143,71.4285714 L142.857143,64.2857143 C142.857143,56.40625 136.450893,50 128.571429,50 Z M71.4285714,50 C85.2455357,50 96.4285714,38.8169643 96.4285714,25 C96.4285714,11.1830357 85.2455357,0 71.4285714,0 C57.6116071,0 46.4285714,11.1830357 46.4285714,25 C46.4285714,38.8169643 57.6116071,50 71.4285714,50 Z M88.5714286,57.1428571 L86.71875,57.1428571 C82.0758929,59.375 76.9196429,60.7142857 71.4285714,60.7142857 C65.9375,60.7142857 60.8035714,59.375 56.1383929,57.1428571 L54.2857143,57.1428571 C40.0892857,57.1428571 28.5714286,68.6607143 28.5714286,82.8571429 L28.5714286,89.2857143 C28.5714286,95.2008929 33.3705357,100 39.2857143,100 L103.571429,100 C109.486607,100 114.285714,95.2008929 114.285714,89.2857143 L114.285714,82.8571429 C114.285714,68.6607143 102.767857,57.1428571 88.5714286,57.1428571 Z M38.6383929,54.1517857 C36.0491071,51.5848214 32.5,50 28.5714286,50 L14.2857143,50 C6.40625,50 1.13686838e-13,56.40625 1.13686838e-13,64.2857143 L1.13686838e-13,71.4285714 C1.13686838e-13,75.3794643 3.19196429,78.5714286 7.14285714,78.5714286 L21.8526786,78.5714286 C23.2589286,67.9910714 29.6428571,59.0848214 38.6383929,54.1517857 Z" class="icon"/>
    </g>
    <g fill="#696969" fill-opacity=".2" stroke="#696969" stroke-width="4" class="important" transform="translate(75 25)">
      <path d="M3.50211166,97.8980465 L50,74.1997743 L96.4978883,97.8980465 C97.4525186,96.8188636 98,95.4190664 98,93.9260694 L98,8 C98,4.6862915 95.3137085,2 92,2 L8,2 C4.6862915,2 2,4.6862915 2,8 L2,93.9260694 C2,95.4190664 2.54748139,96.8188636 3.50211166,97.8980465 Z" class="icon"/>
    </g>
  </g>
</svg>
