<svg xmlns="http://www.w3.org/2000/svg" xmlns:xlink="http://www.w3.org/1999/xlink" width="1000" height="505" viewBox="0 0 1000 505">
  <defs>
    <rect id="path-1" width="400" height="100" x="495" y="0"/>
    <rect id="path-3" width="420" height="100" x="495" y="0"/>
    <rect id="path-5" width="370" height="100" x="495" y="0"/>
    <rect id="path-7" width="355" height="100" x="495" y="0"/>
    <rect id="path-9" width="355" height="100" x="495" y="0"/>
  </defs>
  <g fill="none" fill-rule="evenodd" class="thestars">
    <rect width="1000" height="505" class="remove"/>
    <g class="my" transform="translate(0 5)">
      <text fill="#0F0" class="num" font-family="Courier-Bold, Courier" font-size="70" font-weight="bold" letter-spacing="3">
        <tspan x="204.959" y="75">99,999</tspan>
      </text>
      <path fill="#0F0" fill-opacity=".2" stroke="#0F0" stroke-width="4" d="M945,0 L959.694631,29.7745751 L992.552826,34.5491503 L968.776413,57.7254249 L974.389263,90.4508497 L945,75 L915.610737,90.4508497 L921.223587,57.7254249 L897.447174,34.5491503 L930.305369,29.7745751 L945,0 Z M845,0 L859.694631,29.7745751 L892.552826,34.5491503 L868.776413,57.7254249 L874.389263,90.4508497 L845,75 L815.610737,90.4508497 L821.223587,57.7254249 L797.447174,34.5491503 L830.305369,29.7745751 L845,0 Z M745,0 L759.694631,29.7745751 L792.552826,34.5491503 L768.776413,57.7254249 L774.389263,90.4508497 L745,75 L715.610737,90.4508497 L721.223587,57.7254249 L697.447174,34.5491503 L730.305369,29.7745751 L745,0 Z M645,0 L659.694631,29.7745751 L692.552826,34.5491503 L668.776413,57.7254249 L674.389263,90.4508497 L645,75 L615.610737,90.4508497 L621.223587,57.7254249 L597.447174,34.5491503 L630.305369,29.7745751 L645,0 Z M545,0 L559.694631,29.7745751 L592.552826,34.5491503 L568.776413,57.7254249 L574.389263,90.4508497 L545,75 L515.610737,90.4508497 L521.223587,57.7254249 L497.447174,34.5491503 L530.305369,29.7745751 L545,0 Z" class="bg-stars"/>
      <mask id="mask-2" fill="#fff">
        <use xlink:href="#path-1"/>
      </mask>
      <path fill="#0F0" d="M945,0 L959.694631,29.7745751 L992.552826,34.5491503 L968.776413,57.7254249 L974.389263,90.4508497 L945,75 L915.610737,90.4508497 L921.223587,57.7254249 L897.447174,34.5491503 L930.305369,29.7745751 L945,0 Z M845,0 L859.694631,29.7745751 L892.552826,34.5491503 L868.776413,57.7254249 L874.389263,90.4508497 L845,75 L815.610737,90.4508497 L821.223587,57.7254249 L797.447174,34.5491503 L830.305369,29.7745751 L845,0 Z M745,0 L759.694631,29.7745751 L792.552826,34.5491503 L768.776413,57.7254249 L774.389263,90.4508497 L745,75 L715.610737,90.4508497 L721.223587,57.7254249 L697.447174,34.5491503 L730.305369,29.7745751 L745,0 Z M645,0 L659.694631,29.7745751 L692.552826,34.5491503 L668.776413,57.7254249 L674.389263,90.4508497 L645,75 L615.610737,90.4508497 L621.223587,57.7254249 L597.447174,34.5491503 L630.305369,29.7745751 L645,0 Z M545,0 L559.694631,29.7745751 L592.552826,34.5491503 L568.776413,57.7254249 L574.389263,90.4508497 L545,75 L515.610737,90.4508497 L521.223587,57.7254249 L497.447174,34.5491503 L530.305369,29.7745751 L545,0 Z" class="masked-stars" mask="url(#mask-2)"/>
    </g>
    <g class="friends" transform="translate(0 105)">
      <text fill="#30F" class="num" font-family="Courier-Bold, Courier" font-size="70" font-weight="bold" letter-spacing="3">
        <tspan x="204.959" y="75">99,999</tspan>
      </text>
      <path fill="#02F" fill-opacity=".2" stroke="#02F" stroke-width="4" d="M945,0 L959.694631,29.7745751 L992.552826,34.5491503 L968.776413,57.7254249 L974.389263,90.4508497 L945,75 L915.610737,90.4508497 L921.223587,57.7254249 L897.447174,34.5491503 L930.305369,29.7745751 L945,0 Z M845,0 L859.694631,29.7745751 L892.552826,34.5491503 L868.776413,57.7254249 L874.389263,90.4508497 L845,75 L815.610737,90.4508497 L821.223587,57.7254249 L797.447174,34.5491503 L830.305369,29.7745751 L845,0 Z M745,0 L759.694631,29.7745751 L792.552826,34.5491503 L768.776413,57.7254249 L774.389263,90.4508497 L745,75 L715.610737,90.4508497 L721.223587,57.7254249 L697.447174,34.5491503 L730.305369,29.7745751 L745,0 Z M645,0 L659.694631,29.7745751 L692.552826,34.5491503 L668.776413,57.7254249 L674.389263,90.4508497 L645,75 L615.610737,90.4508497 L621.223587,57.7254249 L597.447174,34.5491503 L630.305369,29.7745751 L645,0 Z M545,0 L559.694631,29.7745751 L592.552826,34.5491503 L568.776413,57.7254249 L574.389263,90.4508497 L545,75 L515.610737,90.4508497 L521.223587,57.7254249 L497.447174,34.5491503 L530.305369,29.7745751 L545,0 Z" class="bg-stars"/>
      <mask id="mask-4" fill="#fff">
        <use xlink:href="#path-3"/>
      </mask>
      <path fill="#02F" d="M945,0 L959.694631,29.7745751 L992.552826,34.5491503 L968.776413,57.7254249 L974.389263,90.4508497 L945,75 L915.610737,90.4508497 L921.223587,57.7254249 L897.447174,34.5491503 L930.305369,29.7745751 L945,0 Z M845,0 L859.694631,29.7745751 L892.552826,34.5491503 L868.776413,57.7254249 L874.389263,90.4508497 L845,75 L815.610737,90.4508497 L821.223587,57.7254249 L797.447174,34.5491503 L830.305369,29.7745751 L845,0 Z M745,0 L759.694631,29.7745751 L792.552826,34.5491503 L768.776413,57.7254249 L774.389263,90.4508497 L745,75 L715.610737,90.4508497 L721.223587,57.7254249 L697.447174,34.5491503 L730.305369,29.7745751 L745,0 Z M645,0 L659.694631,29.7745751 L692.552826,34.5491503 L668.776413,57.7254249 L674.389263,90.4508497 L645,75 L615.610737,90.4508497 L621.223587,57.7254249 L597.447174,34.5491503 L630.305369,29.7745751 L645,0 Z M545,0 L559.694631,29.7745751 L592.552826,34.5491503 L568.776413,57.7254249 L574.389263,90.4508497 L545,75 L515.610737,90.4508497 L521.223587,57.7254249 L497.447174,34.5491503 L530.305369,29.7745751 L545,0 Z" class="masked-stars" mask="url(#mask-4)"/>
    </g>
    <g class="school" transform="translate(0 205)">
      <text fill="#60F" class="num" font-family="Courier-Bold, Courier" font-size="70" font-weight="bold" letter-spacing="3">
        <tspan x="204.959" y="75">99,999</tspan>
      </text>
      <path fill="#60F" fill-opacity=".2" stroke="#60F" stroke-width="4" d="M945,0 L959.694631,29.7745751 L992.552826,34.5491503 L968.776413,57.7254249 L974.389263,90.4508497 L945,75 L915.610737,90.4508497 L921.223587,57.7254249 L897.447174,34.5491503 L930.305369,29.7745751 L945,0 Z M845,0 L859.694631,29.7745751 L892.552826,34.5491503 L868.776413,57.7254249 L874.389263,90.4508497 L845,75 L815.610737,90.4508497 L821.223587,57.7254249 L797.447174,34.5491503 L830.305369,29.7745751 L845,0 Z M745,0 L759.694631,29.7745751 L792.552826,34.5491503 L768.776413,57.7254249 L774.389263,90.4508497 L745,75 L715.610737,90.4508497 L721.223587,57.7254249 L697.447174,34.5491503 L730.305369,29.7745751 L745,0 Z M645,0 L659.694631,29.7745751 L692.552826,34.5491503 L668.776413,57.7254249 L674.389263,90.4508497 L645,75 L615.610737,90.4508497 L621.223587,57.7254249 L597.447174,34.5491503 L630.305369,29.7745751 L645,0 Z M545,0 L559.694631,29.7745751 L592.552826,34.5491503 L568.776413,57.7254249 L574.389263,90.4508497 L545,75 L515.610737,90.4508497 L521.223587,57.7254249 L497.447174,34.5491503 L530.305369,29.7745751 L545,0 Z" class="bg-stars"/>
      <mask id="mask-6" fill="#fff">
        <use xlink:href="#path-5"/>
      </mask>
      <path fill="#60F" d="M945,0 L959.694631,29.7745751 L992.552826,34.5491503 L968.776413,57.7254249 L974.389263,90.4508497 L945,75 L915.610737,90.4508497 L921.223587,57.7254249 L897.447174,34.5491503 L930.305369,29.7745751 L945,0 Z M845,0 L859.694631,29.7745751 L892.552826,34.5491503 L868.776413,57.7254249 L874.389263,90.4508497 L845,75 L815.610737,90.4508497 L821.223587,57.7254249 L797.447174,34.5491503 L830.305369,29.7745751 L845,0 Z M745,0 L759.694631,29.7745751 L792.552826,34.5491503 L768.776413,57.7254249 L774.389263,90.4508497 L745,75 L715.610737,90.4508497 L721.223587,57.7254249 L697.447174,34.5491503 L730.305369,29.7745751 L745,0 Z M645,0 L659.694631,29.7745751 L692.552826,34.5491503 L668.776413,57.7254249 L674.389263,90.4508497 L645,75 L615.610737,90.4508497 L621.223587,57.7254249 L597.447174,34.5491503 L630.305369,29.7745751 L645,0 Z M545,0 L559.694631,29.7745751 L592.552826,34.5491503 L568.776413,57.7254249 L574.389263,90.4508497 L545,75 L515.610737,90.4508497 L521.223587,57.7254249 L497.447174,34.5491503 L530.305369,29.7745751 L545,0 Z" class="masked-stars" mask="url(#mask-6)"/>
    </g>
    <g class="following" transform="translate(0 305)">
      <text fill="#F80" class="num" font-family="Courier-Bold, Courier" font-size="70" font-weight="bold" letter-spacing="3">
        <tspan x="204.959" y="75">99,999</tspan>
      </text>
      <path fill="#F80" fill-opacity=".2" stroke="#F80" stroke-width="4" d="M945,0 L959.694631,29.7745751 L992.552826,34.5491503 L968.776413,57.7254249 L974.389263,90.4508497 L945,75 L915.610737,90.4508497 L921.223587,57.7254249 L897.447174,34.5491503 L930.305369,29.7745751 L945,0 Z M845,0 L859.694631,29.7745751 L892.552826,34.5491503 L868.776413,57.7254249 L874.389263,90.4508497 L845,75 L815.610737,90.4508497 L821.223587,57.7254249 L797.447174,34.5491503 L830.305369,29.7745751 L845,0 Z M745,0 L759.694631,29.7745751 L792.552826,34.5491503 L768.776413,57.7254249 L774.389263,90.4508497 L745,75 L715.610737,90.4508497 L721.223587,57.7254249 L697.447174,34.5491503 L730.305369,29.7745751 L745,0 Z M645,0 L659.694631,29.7745751 L692.552826,34.5491503 L668.776413,57.7254249 L674.389263,90.4508497 L645,75 L615.610737,90.4508497 L621.223587,57.7254249 L597.447174,34.5491503 L630.305369,29.7745751 L645,0 Z M545,0 L559.694631,29.7745751 L592.552826,34.5491503 L568.776413,57.7254249 L574.389263,90.4508497 L545,75 L515.610737,90.4508497 L521.223587,57.7254249 L497.447174,34.5491503 L530.305369,29.7745751 L545,0 Z" class="bg-stars"/>
      <mask id="mask-8" fill="#fff">
        <use xlink:href="#path-7"/>
      </mask>
      <path fill="#F80" d="M945,0 L959.694631,29.7745751 L992.552826,34.5491503 L968.776413,57.7254249 L974.389263,90.4508497 L945,75 L915.610737,90.4508497 L921.223587,57.7254249 L897.447174,34.5491503 L930.305369,29.7745751 L945,0 Z M845,0 L859.694631,29.7745751 L892.552826,34.5491503 L868.776413,57.7254249 L874.389263,90.4508497 L845,75 L815.610737,90.4508497 L821.223587,57.7254249 L797.447174,34.5491503 L830.305369,29.7745751 L845,0 Z M745,0 L759.694631,29.7745751 L792.552826,34.5491503 L768.776413,57.7254249 L774.389263,90.4508497 L745,75 L715.610737,90.4508497 L721.223587,57.7254249 L697.447174,34.5491503 L730.305369,29.7745751 L745,0 Z M645,0 L659.694631,29.7745751 L692.552826,34.5491503 L668.776413,57.7254249 L674.389263,90.4508497 L645,75 L615.610737,90.4508497 L621.223587,57.7254249 L597.447174,34.5491503 L630.305369,29.7745751 L645,0 Z M545,0 L559.694631,29.7745751 L592.552826,34.5491503 L568.776413,57.7254249 L574.389263,90.4508497 L545,75 L515.610737,90.4508497 L521.223587,57.7254249 L497.447174,34.5491503 L530.305369,29.7745751 L545,0 Z" class="masked-stars" mask="url(#mask-8)"/>
    </g>
    <g class="others" transform="translate(0 405)">
      <text fill="#696969" class="num" font-family="Courier-Bold, Courier" font-size="70" font-weight="bold" letter-spacing="3">
        <tspan x="204.959" y="75">99,999</tspan>
      </text>
      <path fill="#696969" fill-opacity=".2" stroke="#696969" stroke-width="4" d="M945,0 L959.694631,29.7745751 L992.552826,34.5491503 L968.776413,57.7254249 L974.389263,90.4508497 L945,75 L915.610737,90.4508497 L921.223587,57.7254249 L897.447174,34.5491503 L930.305369,29.7745751 L945,0 Z M845,0 L859.694631,29.7745751 L892.552826,34.5491503 L868.776413,57.7254249 L874.389263,90.4508497 L845,75 L815.610737,90.4508497 L821.223587,57.7254249 L797.447174,34.5491503 L830.305369,29.7745751 L845,0 Z M745,0 L759.694631,29.7745751 L792.552826,34.5491503 L768.776413,57.7254249 L774.389263,90.4508497 L745,75 L715.610737,90.4508497 L721.223587,57.7254249 L697.447174,34.5491503 L730.305369,29.7745751 L745,0 Z M645,0 L659.694631,29.7745751 L692.552826,34.5491503 L668.776413,57.7254249 L674.389263,90.4508497 L645,75 L615.610737,90.4508497 L621.223587,57.7254249 L597.447174,34.5491503 L630.305369,29.7745751 L645,0 Z M545,0 L559.694631,29.7745751 L592.552826,34.5491503 L568.776413,57.7254249 L574.389263,90.4508497 L545,75 L515.610737,90.4508497 L521.223587,57.7254249 L497.447174,34.5491503 L530.305369,29.7745751 L545,0 Z" class="bg-stars"/>
      <mask id="mask-10" fill="#fff">
        <use xlink:href="#path-9"/>
      </mask>
      <path fill="#696969" d="M945,0 L959.694631,29.7745751 L992.552826,34.5491503 L968.776413,57.7254249 L974.389263,90.4508497 L945,75 L915.610737,90.4508497 L921.223587,57.7254249 L897.447174,34.5491503 L930.305369,29.7745751 L945,0 Z M845,0 L859.694631,29.7745751 L892.552826,34.5491503 L868.776413,57.7254249 L874.389263,90.4508497 L845,75 L815.610737,90.4508497 L821.223587,57.7254249 L797.447174,34.5491503 L830.305369,29.7745751 L845,0 Z M745,0 L759.694631,29.7745751 L792.552826,34.5491503 L768.776413,57.7254249 L774.389263,90.4508497 L745,75 L715.610737,90.4508497 L721.223587,57.7254249 L697.447174,34.5491503 L730.305369,29.7745751 L745,0 Z M645,0 L659.694631,29.7745751 L692.552826,34.5491503 L668.776413,57.7254249 L674.389263,90.4508497 L645,75 L615.610737,90.4508497 L621.223587,57.7254249 L597.447174,34.5491503 L630.305369,29.7745751 L645,0 Z M545,0 L559.694631,29.7745751 L592.552826,34.5491503 L568.776413,57.7254249 L574.389263,90.4508497 L545,75 L515.610737,90.4508497 L521.223587,57.7254249 L497.447174,34.5491503 L530.305369,29.7745751 L545,0 Z" class="masked-stars" mask="url(#mask-10)"/>
    </g>
  </g>
</svg>
